<?xml version="1.0" encoding="utf-8"?>
<!-- Generator: Adobe Illustrator 21.0.0, SVG Export Plug-In . SVG Version: 6.00 Build 0)  -->
<svg version="1.1" id="Layer_1" xmlns="http://www.w3.org/2000/svg" xmlns:xlink="http://www.w3.org/1999/xlink" x="0px" y="0px"
	 viewBox="0 0 504 54" style="enable-background:new 0 0 504 54;" xml:space="preserve">
<style type="text/css">
	.st0{fill:#3D3D3D;stroke:#753C37;}
	.st1{fill:#753C37;stroke:#333333;stroke-linecap:round;}
	.st2{fill:#753C37;}
	.st3{fill:#333333;}
	.st4{fill:none;stroke:#753C37;stroke-linecap:round;}
	.st5{fill:none;stroke:#333333;stroke-linecap:round;}
	.st6{display:none;fill:none;stroke:#333333;stroke-linecap:round;}
	.st7{fill:#9E8D66;}
	.st8{fill:#753C37;stroke:#333333;stroke-width:0.5;stroke-linecap:round;}
	.st9{fill:#FFFFFE;}
	.st10{display:none;fill:none;stroke:#666666;stroke-linecap:round;}
	.st11{display:none;fill:none;stroke:#222222;stroke-linecap:round;}
	.st12{fill:#262626;fill-opacity:0.6;}
</style>
<g id="SurahTitle-Light">
	<polygon id="Fill-1" class="st0" points="253.1,1 250.9,1 1,1 1,27 1,53 250.9,53 253.1,53 503,53 503,27 503,1 	"/>
	
		<g id="Group-Copy-2" transform="translate(421.798817, 26.000000) rotate(-180.000000) translate(-421.798817, -26.000000) translate(347.538462, 2.888889)">
		<path id="Stroke-8_1_" class="st1" d="M46.7,41c-3.1,0.3-14.3-0.5-16.4-6.4c0,0,7.6,3.5,5.3-3.6c-2.4-7.4,5.9-7.9,10.7-4.3
			c0,0-5.6-0.9-2.3,5.2c2.6,4.7-3.6,4.6-3.6,4c0,0,1.5-3.5-1.4-3.5c-3.4,0-2.3,3.5,0.1,4.9c2.3,1.5,9,0.9,10.6-2
			c2-3.5,0.2-4.7,0.2-4.7s3-0.9,2.7-2.1c-0.4-1.7-1.6-1.1-2.4-1.2c0,0-2.4-3.2-5.8-5.3c3.4-2.2,5.8-5.3,5.8-5.3c0.9,0,2,0.5,2.4-1.2
			c0.3-1.2-2.7-2.1-2.7-2.1s1.7-1.2-0.2-4.7c-1.7-2.9-8.4-3.5-10.6-2c-2.3,1.5-3.4,4.9-0.1,4.9c3,0,1.4-3.5,1.4-3.5
			c0-0.7,6.2-0.8,3.6,4c-3.4,6.1,2.3,5.2,2.3,5.2c-4.8,3.6-13.1,3.1-10.7-4.3c2.3-7.1-5.3-3.6-5.3-3.6C32.4,3.5,43.5,2.6,46.7,3
			C51.9,3.5,62,9.3,65.2,14.5c3,4.8,19.6,7,23.2,7.5c-3.6,0.4-20.3,2.6-23.2,7.5C62,34.7,51.9,40.5,46.7,41z M74,43.6
			c7.3-1.8,8.2-7.7,4-9c-6.3-1.9-3.7,4.8-1.3,3.4c0,0-0.7,5.7-8.4,2.9c-5-1.8-1-4.9-0.6-5.8c0.5-0.9,1.1-3.3-1.4-3.3
			c0,0,6.4-6.7,22.8-7.9l0-2l0-2c-16.4-1.1-22.8-7.9-22.8-7.9c2.5,0,1.8-2.4,1.4-3.3c-0.5-0.9-4.5-3.9,0.6-5.8C76,0.3,76.7,6,76.7,6
			c-2.4-1.4-5,5.3,1.3,3.4c4.3-1.3,3.3-7.2-4-9c-9.9-2.5-11.8,4.9-11.8,4.9C57.4,2.5,42-1.6,33.4,4.1c-7.8,5.1-4.1,6.3-10.2,12.3
			c-8.2,8-19.8-0.5-19.8-0.5c1.1-0.1,2.3,0.4,2.5-2.5c0.2-4.2-2.2-3.8-1.5-6.5c1.5-5.7,6.9-4.3,6.9-4.3c1,4.9,4.9,3.5,4.9,3.5
			c3.5,4.3-2.3,6.4-2.3,6.4c-0.1-2.6-2.8-3.2-4.6-1.2c-1,1.1-0.7,4,1.6,4.5c7.5,1.8,10.1-4.4,9.5-8.7C19.3-0.1,9-0.7,4.9,2
			s-7.2,6.4-5.3,12.9c1.6,5.5,9.4,6.9,11.9,7.2c-2.4,0.3-10.2,1.7-11.9,7.2c-1.9,6.5,1.2,10.3,5.3,12.9c4.1,2.6,14.4,2.1,15.5-5.3
			c0.6-4.3-2-10.4-9.5-8.7c-2.3,0.5-2.7,3.4-1.6,4.5c1.9,2,4.6,1.4,4.6-1.2c0,0,5.8,2.1,2.3,6.4c0,0-3.9-1.4-4.9,3.5
			c0,0-5.4,1.5-6.9-4.3c-0.7-2.8,1.7-2.3,1.5-6.5c-0.2-2.9-1.4-2.4-2.5-2.5c0,0,11.6-8.5,19.8-0.5c6.1,6,2.4,7.2,10.2,12.3
			c8.6,5.7,24,1.6,28.9-1.2C62.2,38.7,64.2,46.1,74,43.6z"/>
		<path id="Fill-10_1_" class="st2" d="M92,38.8c-5.1-2.3-3.9-8.6-3.9-8.6s-7.9,1.9-10.7-1.6c-4.4-5.4-10.5-6.9-10.5-6.9
			s6.1-1.1,10.5-6.6c2.8-3.5,10.7-1.6,10.7-1.6S86.9,7,92,4.7c5.1-2.4,9.7-2.2,15.6,3.9c0,0-4.2,10.6,11.4,13.4
			C103.4,24.5,107.6,35,107.6,35C101.8,40.9,97.1,41.1,92,38.8"/>
		<path id="Fill-14_1_" class="st3" d="M19.5,4.6c0,0,5.3,0.8,7.5-0.5s7.5-4.7,10.9-2.8c2,1.1,1.4,3.6-0.5,4.5
			c-3,1.4-3.3-2.9-3.3-2.9s-2.4-0.4-4.3,1.6c-2.3,2.4-5.6,4.3-9.4,3.3C20.4,7.7,20,5.4,19.5,4.6"/>
		<path id="Stroke-16_1_" class="st4" d="M18,4.6c0,0,5.3,0.8,7.5-0.5S33-0.6,36.4,1.2c2,1.1,1.4,3.6-0.5,4.5
			c-3,1.4-3.3-2.9-3.3-2.9s-2.4-0.4-4.3,1.6c-2.3,2.4-5.6,4.3-9.4,3.3C18.9,7.7,18.5,5.4,18,4.6z"/>
		<path id="Fill-18_1_" class="st3" d="M19.5,39.3c0,0,5.3-0.8,7.5,0.5c2.3,1.4,7.5,4.7,10.9,2.8c2-1.1,1.4-3.6-0.5-4.5
			c-3-1.4-3.3,2.9-3.3,2.9s-2.4,0.4-4.3-1.6c-2.3-2.4-5.6-4.3-9.4-3.3C20.4,36.2,20,38.5,19.5,39.3"/>
		<path id="Stroke-20_1_" class="st4" d="M18,39.3c0,0,5.3-0.8,7.5,0.5c2.3,1.4,7.5,4.7,10.9,2.8c2-1.1,1.4-3.6-0.5-4.5
			c-3-1.4-3.3,2.9-3.3,2.9s-2.4,0.4-4.3-1.6c-2.3-2.4-5.6-4.3-9.4-3.3C18.9,36.2,18.5,38.5,18,39.3z"/>
		<path id="Fill-22_1_" class="st3" d="M89.6,22.1c0,0-0.7-5.9,3.9-7.5c4.6-1.6,6.6-3,4-5.2c0,0,2.3-1.9,4.1,0.7
			c1.7,2.6,0.7,5.5-2.3,6.1c0,0,4.5-0.8,6.3,2.2s1.8,3.1,4.2,3.7"/>
		<path id="Stroke-24_1_" class="st5" d="M89.6,22.1c0,0-0.7-5.9,3.9-7.5c4.6-1.6,6.6-3,4-5.2c0,0,2.3-1.9,4.1,0.7
			c1.7,2.6,0.7,5.5-2.3,6.1c0,0,4.5-0.8,6.3,2.2s1.8,3.1,4.2,3.7"/>
		<path id="Fill-26_1_" class="st3" d="M89.6,22.1c0,0-0.7,5.9,3.9,7.5c4.6,1.6,6.6,3,4,5.2c0,0,2.3,1.9,4.1-0.7
			c1.7-2.6,0.7-5.5-2.3-6.1c0,0,4.5,0.8,6.3-2.2s1.8-3.1,4.2-3.7"/>
		<path id="Stroke-28_1_" class="st5" d="M89.6,22.1c0,0-0.7,5.9,3.9,7.5c4.6,1.6,6.6,3,4,5.2c0,0,2.3,1.9,4.1-0.7
			c1.7-2.6,0.7-5.5-2.3-6.1c0,0,4.5,0.8,6.3-2.2s1.8-3.1,4.2-3.7"/>
		<path id="Fill-30_1_" class="st2" d="M97.1,29c0,0,0.4-0.4,0-1.3c-1-2.2-1.8-1.1-3.8-1.7c-2-0.7-1.3-3.9-1.3-3.9s-0.8-3.2,1.3-3.9
			s2.7,0.4,3.8-1.7c0.4-0.8,0-1.3,0-1.3s1.8-0.3,1,2.8c0,0,2.1,0.1,3.6,1.8c0.9,1.1,1.5,1.9,3,2.2c-1.6,0.3-2.1,1.2-3,2.2
			c-1.5,1.7-3.6,1.8-3.6,1.8C98.8,29.3,97.1,29,97.1,29"/>
		<path id="Stroke-32_1_" class="st5" d="M97.1,29c0,0,0.4-0.4,0-1.3c-1-2.2-1.8-1.1-3.8-1.7c-2-0.7-1.3-3.9-1.3-3.9
			s-0.8-3.2,1.3-3.9s2.7,0.4,3.8-1.7c0.4-0.8,0-1.3,0-1.3s1.8-0.3,1,2.8c0,0,2.1,0.1,3.6,1.8c0.9,1.1,1.5,1.9,3,2.2
			c-1.6,0.3-2.1,1.2-3,2.2c-1.5,1.7-3.6,1.8-3.6,1.8C98.8,29.3,97.1,29,97.1,29z"/>
		<path id="Fill-34_1_" class="st3" d="M92.8,42.1c-8-2.6-8.4-8.8-8.4-8.8c-2.6,0.9-7.9,0-10.2-4c-1.5-2.6-5.7-3.6-5.7-3.6
			c-4.1,4.1-6-0.9-6-0.9c-0.9,1.3-3.2,0.4-4.5-1.2c-1.1-1.2-1.9-1.7-2.3-1.9h-0.2c0,0,0,0,0.1,0c-0.1,0-0.1,0-0.1,0h0.2
			c0.3-0.2,1.2-0.7,2.3-1.9c1.4-1.5,3.6-2.5,4.5-1.2c0,0,2-5,6-0.9c0,0,4.2-1,5.7-3.6c2.3-4,7.7-4.9,10.2-4c0,0,0.5-6.2,8.4-8.8
			c8-2.6,15.4,0.9,16.6,3c1.2,2.1-1.2,6.4-1.2,6.4s-5.7-9.5-13.8-6.9c-5.2,1.6-7.1,4.7-6.6,9.5c0,0-8.2-2.1-11.5,2.7
			c-2.8,4.2-8.3,5.6-9.3,5.8c1,0.2,6.5,1.7,9.3,5.8c3.2,4.8,11.5,2.7,11.5,2.7c-0.5,4.7,1.4,7.8,6.6,9.5c8.1,2.6,13.8-6.9,13.8-6.9
			s2.4,4.3,1.2,6.4C108.2,41.2,100.8,44.7,92.8,42.1"/>
		<path id="Stroke-36_1_" class="st6" d="M92.8,42.1c-8-2.6-8.4-8.8-8.4-8.8c-2.6,0.9-7.9,0-10.2-4c-1.5-2.6-5.7-3.6-5.7-3.6
			c-4.1,4.1-6-0.9-6-0.9c-0.9,1.3-3.2,0.4-4.5-1.2c-1.1-1.2-1.9-1.7-2.3-1.9h-0.2c0,0,0,0,0.1,0c-0.1,0-0.1,0-0.1,0h0.2
			c0.3-0.2,1.2-0.7,2.3-1.9c1.4-1.5,3.6-2.5,4.5-1.2c0,0,2-5,6-0.9c0,0,4.2-1,5.7-3.6c2.3-4,7.7-4.9,10.2-4c0,0,0.5-6.2,8.4-8.8
			c8-2.6,15.4,0.9,16.6,3c1.2,2.1-1.2,6.4-1.2,6.4s-5.7-9.5-13.8-6.9c-5.2,1.6-7.1,4.7-6.6,9.5c0,0-8.2-2.1-11.5,2.7
			c-2.8,4.2-8.3,5.6-9.3,5.8c1,0.2,6.5,1.7,9.3,5.8c3.2,4.8,11.5,2.7,11.5,2.7c-0.5,4.7,1.4,7.8,6.6,9.5c8.1,2.6,13.8-6.9,13.8-6.9
			s2.4,4.3,1.2,6.4C108.2,41.2,100.8,44.7,92.8,42.1z"/>
		<path id="Fill-38_1_" class="st7" d="M125.3,9c0,0,3.8-3.7,8.7-3.4c5,0.3,8.1,1.8,9,0c0,0-3.5-2.1,0-3.6c1.7-0.7,2.8-0.1,3.4,0.5
			c0.5,0.5,0.8,1.7,0.6,2.6c-0.2,0.8-0.8,1.8-2.2,2.4c-2.8,1.1-6.4,0.1-6.4,0.1s-4-1-6,1.3c-2.4,2.7-5.5,3.3-6,3.3
			C125.8,12.1,125.3,9,125.3,9"/>
		<path id="Stroke-40_1_" class="st8" d="M125.3,9c0,0,3.8-3.7,8.7-3.4c5,0.3,8.1,1.8,9,0c0,0-3.5-2.1,0-3.6
			c1.7-0.7,2.8-0.1,3.4,0.5c0.5,0.5,0.8,1.7,0.6,2.6c-0.2,0.8-0.8,1.8-2.2,2.4c-2.8,1.1-6.4,0.1-6.4,0.1s-4-1-6,1.3
			c-2.4,2.7-5.5,3.3-6,3.3C125.8,12.1,125.3,9,125.3,9z"/>
		<path id="Fill-42_1_" class="st7" d="M106,20c0,0,12.6-1.7,13.7-4.6c0,0-1.9-2.6,0.8-4.8c2.7-2.2,2.2-2.9,1-4.3
			c0,0,7.6,1.4,4.1,7.4c-3.5,6.1-16.7,7.9-16.7,7.9S106.8,21.4,106,20"/>
		<path id="Stroke-44_1_" class="st8" d="M106,20c0,0,12.6-1.7,13.7-4.6c0,0-1.9-2.6,0.8-4.8c2.7-2.2,2.2-2.9,1-4.3
			c0,0,7.6,1.4,4.1,7.4c-3.5,6.1-16.7,7.9-16.7,7.9S106.8,21.4,106,20z"/>
		<path id="Fill-46_1_" class="st7" d="M118.7,21.7c-3.9,0-10.9-1.1-11.7-8.9c-0.8-7.7,3.9-9.5,6.3-10.3c4-1.4,12.9-1,14.7,0.6
			c0,0,1.9-3.3,4.4-1.4c2.1,1.6-2.2,5.2-4.6,3.3c-0.9-0.7-3.8-1.7-5-1.8c-2-0.2-6.9-0.3-7.9,3.2c0,0,1,4.1-0.7,5.7
			c-1,1-3.1,0.6-3.4-1.4c0,0-1.4,2.9,1.5,6.2c1.9,2.1,6.2,4,9,2.8"/>
		<path id="Stroke-48_1_" class="st8" d="M118.7,21.7c-3.9,0-10.9-1.1-11.7-8.9c-0.8-7.7,3.9-9.5,6.3-10.3c4-1.4,12.9-1,14.7,0.6
			c0,0,1.9-3.3,4.4-1.4c2.1,1.6-2.2,5.2-4.6,3.3c-0.9-0.7-3.8-1.7-5-1.8c-2-0.2-6.9-0.3-7.9,3.2c0,0,1,4.1-0.7,5.7
			c-1,1-3.1,0.6-3.4-1.4c0,0-1.4,2.9,1.5,6.2c1.9,2.1,6.2,4,9,2.8"/>
		<path id="Fill-50_1_" class="st9" d="M125.3,34.6c0,0,3.8,3.7,8.7,3.4c5-0.3,8.1-1.8,9,0c0,0-3.5,2.1,0,3.6
			c1.7,0.7,2.8,0.1,3.4-0.5c0.5-0.5,0.8-1.7,0.6-2.6c-0.2-0.8-0.8-1.8-2.2-2.4c-2.8-1.1-6.4-0.1-6.4-0.1s-4,1-6-1.3
			c-2.4-2.7-5.5-3.3-6-3.3C125.8,31.6,125.3,34.6,125.3,34.6"/>
		<path id="Stroke-52_1_" class="st8" d="M125.3,34.6c0,0,3.8,3.7,8.7,3.4c5-0.3,8.1-1.8,9,0c0,0-3.5,2.1,0,3.6
			c1.7,0.7,2.8,0.1,3.4-0.5c0.5-0.5,0.8-1.7,0.6-2.6c-0.2-0.8-0.8-1.8-2.2-2.4c-2.8-1.1-6.4-0.1-6.4-0.1s-4,1-6-1.3
			c-2.4-2.7-5.5-3.3-6-3.3C125.8,31.6,125.3,34.6,125.3,34.6z"/>
		<path id="Fill-54_1_" class="st9" d="M106,23.7c0,0,12.6,1.7,13.7,4.6c0,0-1.9,2.6,0.8,4.8c2.7,2.2,2.2,2.9,1,4.3
			c0,0,7.6-1.4,4.1-7.4c-3.5-6.1-16.7-7.9-16.7-7.9S106.8,22.3,106,23.7"/>
		<path id="Stroke-56_1_" class="st8" d="M106,23.7c0,0,12.6,1.7,13.7,4.6c0,0-1.9,2.6,0.8,4.8c2.7,2.2,2.2,2.9,1,4.3
			c0,0,7.6-1.4,4.1-7.4c-3.5-6.1-16.7-7.9-16.7-7.9S106.8,22.3,106,23.7z"/>
		<path id="Fill-58_1_" class="st9" d="M118.7,22c-3.9,0-10.9,1.1-11.7,8.9c-0.8,7.7,3.9,9.5,6.3,10.3c4,1.4,12.9,1,14.7-0.6
			c0,0,1.9,3.3,4.4,1.4c2.1-1.6-2.2-5.2-4.6-3.3c-0.9,0.7-3.8,1.7-5,1.8c-2,0.2-6.9,0.3-7.9-3.2c0,0,1-4.1-0.7-5.7
			c-1-1-3.1-0.6-3.4,1.4c0,0-1.4-2.9,1.5-6.2c1.9-2.1,6.2-4,9-2.8"/>
		<path id="Stroke-60_1_" class="st8" d="M118.7,22c-3.9,0-10.9,1.1-11.7,8.9c-0.8,7.7,3.9,9.5,6.3,10.3c4,1.4,12.9,1,14.7-0.6
			c0,0,1.9,3.3,4.4,1.4c2.1-1.6-2.2-5.2-4.6-3.3c-0.9,0.7-3.8,1.7-5,1.8c-2,0.2-6.9,0.3-7.9-3.2c0,0,1-4.1-0.7-5.7
			c-1-1-3.1-0.6-3.4,1.4c0,0-1.4-2.9,1.5-6.2c1.9-2.1,6.2-4,9-2.8"/>
		<path id="Fill-62_1_" class="st2" d="M19,21.7c0,0,9.4-2.1,11.3-5.4c0,0,3.2,5.4,6.1,5.4c-2.9,0-6.1,5.4-6.1,5.4
			C28.4,23.8,19,21.7,19,21.7"/>
		<path id="Stroke-64_1_" class="st5" d="M19,21.7c0,0,9.4-2.1,11.3-5.4c0,0,3.2,5.4,6.1,5.4c-2.9,0-6.1,5.4-6.1,5.4
			C28.4,23.8,19,21.7,19,21.7z"/>
	</g>
	
		<g id="Group-Copy-2_1_" transform="translate(421.798817, 26.000000) rotate(-180.000000) translate(-421.798817, -26.000000) translate(347.538462, 2.888889)">
		<path id="Stroke-8_2_" class="st1" d="M441,2.7c3.1-0.3,14.3,0.5,16.4,6.4c0,0-7.6-3.5-5.3,3.6c2.4,7.4-5.9,7.9-10.7,4.3
			c0,0,5.6,0.9,2.3-5.2c-2.6-4.7,3.6-4.6,3.6-4c0,0-1.5,3.5,1.4,3.5c3.4,0,2.3-3.5-0.1-4.9c-2.3-1.5-9-0.9-10.6,2
			c-2,3.5-0.2,4.7-0.2,4.7s-3,0.9-2.7,2.1c0.4,1.7,1.6,1.1,2.4,1.2c0,0,2.4,3.2,5.8,5.3c-3.4,2.2-5.8,5.3-5.8,5.3
			c-0.9,0-2-0.5-2.4,1.2c-0.3,1.2,2.7,2.1,2.7,2.1S436,31.5,438,35c1.7,2.9,8.4,3.5,10.6,2c2.3-1.5,3.4-4.9,0.1-4.9
			c-3,0-1.4,3.5-1.4,3.5c0,0.7-6.2,0.8-3.6-4c3.4-6.1-2.3-5.2-2.3-5.2c4.8-3.6,13.1-3.1,10.7,4.3c-2.3,7.1,5.3,3.6,5.3,3.6
			c-2.1,5.9-13.2,6.8-16.4,6.4c-5.2-0.5-15.3-6.4-18.5-11.6c-3-4.8-19.6-7-23.2-7.5c3.6-0.4,20.3-2.6,23.2-7.5
			C425.7,9.1,435.9,3.2,441,2.7z M413.7,0.1c-7.3,1.8-8.2,7.7-4,9c6.3,1.9,3.7-4.8,1.3-3.4c0,0,0.7-5.7,8.4-2.9c5,1.8,1,4.9,0.6,5.8
			s-1.1,3.3,1.4,3.3c0,0-6.4,6.7-22.8,7.9l0,2l0,2c16.4,1.1,22.8,7.9,22.8,7.9c-2.5,0-1.8,2.4-1.4,3.3s4.5,3.9-0.6,5.8
			c-7.7,2.8-8.4-2.9-8.4-2.9c2.4,1.4,5-5.3-1.3-3.4c-4.3,1.3-3.3,7.2,4,9c9.9,2.5,11.8-4.9,11.8-4.9c4.9,2.8,20.2,6.9,28.9,1.2
			c7.8-5.1,4.1-6.3,10.2-12.3c8.2-8,19.8,0.5,19.8,0.5c-1.1,0.1-2.3-0.4-2.5,2.5c-0.2,4.2,2.2,3.8,1.5,6.5c-1.5,5.7-6.9,4.3-6.9,4.3
			c-1-4.9-4.9-3.5-4.9-3.5c-3.5-4.3,2.3-6.4,2.3-6.4c0.1,2.6,2.8,3.2,4.6,1.2c1-1.1,0.7-4-1.6-4.5c-7.5-1.8-10.1,4.4-9.5,8.7
			c1.1,7.3,11.4,7.9,15.5,5.3c4.1-2.6,7.2-6.4,5.3-12.9c-1.6-5.5-9.4-6.9-11.9-7.2c2.4-0.3,10.2-1.7,11.9-7.2
			c1.9-6.5-1.2-10.3-5.3-12.9c-4.1-2.6-14.4-2.1-15.5,5.3c-0.6,4.3,2,10.4,9.5,8.7c2.3-0.5,2.7-3.4,1.6-4.5c-1.9-2-4.6-1.4-4.6,1.2
			c0,0-5.8-2.1-2.3-6.4c0,0,3.9,1.4,4.9-3.5c0,0,5.4-1.5,6.9,4.3c0.7,2.8-1.7,2.3-1.5,6.5c0.2,2.9,1.4,2.4,2.5,2.5
			c0,0-11.6,8.5-19.8,0.5c-6.1-6-2.4-7.2-10.2-12.3c-8.6-5.7-24-1.6-28.9,1.2C425.5,5,423.6-2.4,413.7,0.1z"/>
		<path id="Fill-10_2_" class="st2" d="M395.7,5c5.1,2.3,3.9,8.6,3.9,8.6s7.9-1.9,10.7,1.6c4.4,5.4,10.5,6.9,10.5,6.9
			s-6.1,1.1-10.5,6.6c-2.8,3.5-10.7,1.6-10.7,1.6s1.2,6.4-3.9,8.8c-5.1,2.4-9.7,2.2-15.6-3.9c0,0,4.2-10.6-11.4-13.4
			c15.6-2.7,11.4-13.1,11.4-13.1C386,2.8,390.6,2.6,395.7,5"/>
		<path id="Fill-14_2_" class="st3" d="M468.3,39.1c0,0-5.3-0.8-7.5,0.5c-2.3,1.4-7.5,4.7-10.9,2.8c-2-1.1-1.4-3.6,0.5-4.5
			c3-1.4,3.3,2.9,3.3,2.9s2.4,0.4,4.3-1.6c2.3-2.4,5.6-4.3,9.4-3.3C467.3,36,467.8,38.4,468.3,39.1"/>
		<path id="Stroke-16_2_" class="st4" d="M469.8,39.1c0,0-5.3-0.8-7.5,0.5c-2.3,1.4-7.5,4.7-10.9,2.8c-2-1.1-1.4-3.6,0.5-4.5
			c3-1.4,3.3,2.9,3.3,2.9s2.4,0.4,4.3-1.6c2.3-2.4,5.6-4.3,9.4-3.3C468.8,36,469.2,38.4,469.8,39.1z"/>
		<path id="Fill-18_2_" class="st3" d="M468.3,4.4c0,0-5.3,0.8-7.5-0.5c-2.3-1.4-7.5-4.7-10.9-2.8c-2,1.1-1.4,3.6,0.5,4.5
			c3,1.4,3.3-2.9,3.3-2.9s2.4-0.4,4.3,1.6c2.3,2.4,5.6,4.3,9.4,3.3C467.3,7.5,467.8,5.2,468.3,4.4"/>
		<path id="Stroke-20_2_" class="st4" d="M469.8,4.4c0,0-5.3,0.8-7.5-0.5c-2.3-1.4-7.5-4.7-10.9-2.8c-2,1.1-1.4,3.6,0.5,4.5
			c3,1.4,3.3-2.9,3.3-2.9s2.4-0.4,4.3,1.6c2.3,2.4,5.6,4.3,9.4,3.3C468.8,7.5,469.2,5.2,469.8,4.4z"/>
		<path id="Fill-22_2_" class="st3" d="M398.1,21.6c0,0,0.7,5.9-3.9,7.5c-4.6,1.6-6.6,3-4,5.2c0,0-2.3,1.9-4.1-0.7
			c-1.7-2.6-0.7-5.5,2.3-6.1c0,0-4.5,0.8-6.3-2.2c-1.8-3-1.8-3.1-4.2-3.7"/>
		<path id="Stroke-24_2_" class="st5" d="M398.1,21.6c0,0,0.7,5.9-3.9,7.5c-4.6,1.6-6.6,3-4,5.2c0,0-2.3,1.9-4.1-0.7
			c-1.7-2.6-0.7-5.5,2.3-6.1c0,0-4.5,0.8-6.3-2.2c-1.8-3-1.8-3.1-4.2-3.7"/>
		<path id="Fill-26_2_" class="st3" d="M398.1,21.6c0,0,0.7-5.9-3.9-7.5c-4.6-1.6-6.6-3-4-5.2c0,0-2.3-1.9-4.1,0.7
			c-1.7,2.6-0.7,5.5,2.3,6.1c0,0-4.5-0.8-6.3,2.2c-1.8,3-1.8,3.1-4.2,3.7"/>
		<path id="Stroke-28_2_" class="st5" d="M398.1,21.6c0,0,0.7-5.9-3.9-7.5c-4.6-1.6-6.6-3-4-5.2c0,0-2.3-1.9-4.1,0.7
			c-1.7,2.6-0.7,5.5,2.3,6.1c0,0-4.5-0.8-6.3,2.2c-1.8,3-1.8,3.1-4.2,3.7"/>
		<path id="Fill-30_2_" class="st2" d="M390.7,14.8c0,0-0.4,0.4,0,1.3c1,2.2,1.8,1.1,3.8,1.7c2,0.7,1.3,3.9,1.3,3.9s0.8,3.2-1.3,3.9
			c-2,0.7-2.7-0.4-3.8,1.7c-0.4,0.8,0,1.3,0,1.3s-1.8,0.3-1-2.8c0,0-2.1-0.1-3.6-1.8c-0.9-1.1-1.5-1.9-3-2.2c1.6-0.3,2.1-1.2,3-2.2
			c1.5-1.7,3.6-1.8,3.6-1.8C388.9,14.4,390.7,14.8,390.7,14.8"/>
		<path id="Stroke-32_2_" class="st5" d="M390.7,14.8c0,0-0.4,0.4,0,1.3c1,2.2,1.8,1.1,3.8,1.7c2,0.7,1.3,3.9,1.3,3.9
			s0.8,3.2-1.3,3.9c-2,0.7-2.7-0.4-3.8,1.7c-0.4,0.8,0,1.3,0,1.3s-1.8,0.3-1-2.8c0,0-2.1-0.1-3.6-1.8c-0.9-1.1-1.5-1.9-3-2.2
			c1.6-0.3,2.1-1.2,3-2.2c1.5-1.7,3.6-1.8,3.6-1.8C388.9,14.4,390.7,14.8,390.7,14.8z"/>
		<path id="Fill-34_2_" class="st3" d="M394.9,1.7c8,2.6,8.4,8.8,8.4,8.8c2.6-0.9,7.9,0,10.2,4c1.5,2.6,5.7,3.6,5.7,3.6
			c4.1-4.1,6,0.9,6,0.9c0.9-1.3,3.2-0.4,4.5,1.2c1.1,1.2,1.9,1.7,2.3,1.9h0.2c0,0,0,0-0.1,0c0.1,0,0.1,0,0.1,0h-0.2
			c-0.3,0.2-1.2,0.7-2.3,1.9c-1.4,1.5-3.6,2.5-4.5,1.2c0,0-2,5-6,0.9c0,0-4.2,1-5.7,3.6c-2.3,4-7.7,4.9-10.2,4c0,0-0.5,6.2-8.4,8.8
			c-8,2.6-15.4-0.9-16.6-3c-1.2-2.1,1.2-6.4,1.2-6.4s5.7,9.5,13.8,6.9c5.2-1.6,7.1-4.7,6.6-9.5c0,0,8.2,2.1,11.5-2.7
			c2.8-4.2,8.3-5.6,9.3-5.8c-1-0.2-6.5-1.7-9.3-5.8c-3.2-4.8-11.5-2.7-11.5-2.7c0.5-4.7-1.4-7.8-6.6-9.5c-8.1-2.6-13.8,6.9-13.8,6.9
			s-2.4-4.3-1.2-6.4C379.6,2.6,386.9-0.9,394.9,1.7"/>
		<path id="Stroke-36_2_" class="st10" d="M394.9,1.7c8,2.6,8.4,8.8,8.4,8.8c2.6-0.9,7.9,0,10.2,4c1.5,2.6,5.7,3.6,5.7,3.6
			c4.1-4.1,6,0.9,6,0.9c0.9-1.3,3.2-0.4,4.5,1.2c1.1,1.2,1.9,1.7,2.3,1.9h0.2c0,0,0,0-0.1,0c0.1,0,0.1,0,0.1,0h-0.2
			c-0.3,0.2-1.2,0.7-2.3,1.9c-1.4,1.5-3.6,2.5-4.5,1.2c0,0-2,5-6,0.9c0,0-4.2,1-5.7,3.6c-2.3,4-7.7,4.9-10.2,4c0,0-0.5,6.2-8.4,8.8
			c-8,2.6-15.4-0.9-16.6-3c-1.2-2.1,1.2-6.4,1.2-6.4s5.7,9.5,13.8,6.9c5.2-1.6,7.1-4.7,6.6-9.5c0,0,8.2,2.1,11.5-2.7
			c2.8-4.2,8.3-5.6,9.3-5.8c-1-0.2-6.5-1.7-9.3-5.8c-3.2-4.8-11.5-2.7-11.5-2.7c0.5-4.7-1.4-7.8-6.6-9.5c-8.1-2.6-13.8,6.9-13.8,6.9
			s-2.4-4.3-1.2-6.4C379.6,2.6,386.9-0.9,394.9,1.7z"/>
		<path id="Fill-38_2_" class="st7" d="M362.4,34.7c0,0-3.8,3.7-8.7,3.4c-5-0.3-8.1-1.8-9,0c0,0,3.5,2.1,0,3.6
			c-1.7,0.7-2.8,0.1-3.4-0.5c-0.5-0.5-0.8-1.7-0.6-2.6c0.2-0.8,0.8-1.8,2.2-2.4c2.8-1.1,6.4-0.1,6.4-0.1s4,1,6-1.3
			c2.4-2.7,5.5-3.3,6-3.3C361.9,31.6,362.4,34.7,362.4,34.7"/>
		<path id="Stroke-40_2_" class="st8" d="M362.4,34.7c0,0-3.8,3.7-8.7,3.4c-5-0.3-8.1-1.8-9,0c0,0,3.5,2.1,0,3.6
			c-1.7,0.7-2.8,0.1-3.4-0.5c-0.5-0.5-0.8-1.7-0.6-2.6c0.2-0.8,0.8-1.8,2.2-2.4c2.8-1.1,6.4-0.1,6.4-0.1s4,1,6-1.3
			c2.4-2.7,5.5-3.3,6-3.3C361.9,31.6,362.4,34.7,362.4,34.7z"/>
		<path id="Fill-42_2_" class="st7" d="M381.8,23.7c0,0-12.6,1.7-13.7,4.6c0,0,1.9,2.6-0.8,4.8c-2.7,2.2-2.2,2.9-1,4.3
			c0,0-7.6-1.4-4.1-7.4c3.5-6.1,16.7-7.9,16.7-7.9S380.9,22.3,381.8,23.7"/>
		<path id="Stroke-44_2_" class="st8" d="M381.8,23.7c0,0-12.6,1.7-13.7,4.6c0,0,1.9,2.6-0.8,4.8c-2.7,2.2-2.2,2.9-1,4.3
			c0,0-7.6-1.4-4.1-7.4c3.5-6.1,16.7-7.9,16.7-7.9S380.9,22.3,381.8,23.7z"/>
		<path id="Fill-46_2_" class="st7" d="M369,22.1c3.9,0,10.9,1.1,11.7,8.9c0.8,7.7-3.9,9.5-6.3,10.3c-4,1.4-12.9,1-14.7-0.6
			c0,0-1.9,3.3-4.4,1.4c-2.1-1.6,2.2-5.2,4.6-3.3c0.9,0.7,3.8,1.7,5,1.8c2,0.2,6.9,0.3,7.9-3.2c0,0-1-4.1,0.7-5.7
			c1-1,3.1-0.6,3.4,1.4c0,0,1.4-2.9-1.5-6.2c-1.9-2.1-6.2-4-9-2.8"/>
		<path id="Stroke-48_2_" class="st8" d="M369,22.1c3.9,0,10.9,1.1,11.7,8.9c0.8,7.7-3.9,9.5-6.3,10.3c-4,1.4-12.9,1-14.7-0.6
			c0,0-1.9,3.3-4.4,1.4c-2.1-1.6,2.2-5.2,4.6-3.3c0.9,0.7,3.8,1.7,5,1.8c2,0.2,6.9,0.3,7.9-3.2c0,0-1-4.1,0.7-5.7
			c1-1,3.1-0.6,3.4,1.4c0,0,1.4-2.9-1.5-6.2c-1.9-2.1-6.2-4-9-2.8"/>
		<path id="Fill-50_2_" class="st9" d="M362.4,9.1c0,0-3.8-3.7-8.7-3.4c-5,0.3-8.1,1.8-9,0c0,0,3.5-2.1,0-3.6
			c-1.7-0.7-2.8-0.1-3.4,0.5c-0.5,0.5-0.8,1.7-0.6,2.6c0.2,0.8,0.8,1.8,2.2,2.4c2.8,1.1,6.4,0.1,6.4,0.1s4-1,6,1.3
			c2.4,2.7,5.5,3.3,6,3.3C361.9,12.2,362.4,9.1,362.4,9.1"/>
		<path id="Stroke-52_2_" class="st8" d="M362.4,9.1c0,0-3.8-3.7-8.7-3.4c-5,0.3-8.1,1.8-9,0c0,0,3.5-2.1,0-3.6
			c-1.7-0.7-2.8-0.1-3.4,0.5c-0.5,0.5-0.8,1.7-0.6,2.6c0.2,0.8,0.8,1.8,2.2,2.4c2.8,1.1,6.4,0.1,6.4,0.1s4-1,6,1.3
			c2.4,2.7,5.5,3.3,6,3.3C361.9,12.2,362.4,9.1,362.4,9.1z"/>
		<path id="Fill-54_2_" class="st9" d="M381.8,20c0,0-12.6-1.7-13.7-4.6c0,0,1.9-2.6-0.8-4.8c-2.7-2.2-2.2-2.9-1-4.3
			c0,0-7.6,1.4-4.1,7.4c3.5,6.1,16.7,7.9,16.7,7.9S380.9,21.4,381.8,20"/>
		<path id="Stroke-56_2_" class="st8" d="M381.8,20c0,0-12.6-1.7-13.7-4.6c0,0,1.9-2.6-0.8-4.8c-2.7-2.2-2.2-2.9-1-4.3
			c0,0-7.6,1.4-4.1,7.4c3.5,6.1,16.7,7.9,16.7,7.9S380.9,21.4,381.8,20z"/>
		<path id="Fill-58_2_" class="st9" d="M369,21.7c3.9,0,10.9-1.1,11.7-8.9c0.8-7.7-3.9-9.5-6.3-10.3c-4-1.4-12.9-1-14.7,0.6
			c0,0-1.9-3.3-4.4-1.4c-2.1,1.6,2.2,5.2,4.6,3.3c0.9-0.7,3.8-1.7,5-1.8c2-0.2,6.9-0.3,7.9,3.2c0,0-1,4.1,0.7,5.7
			c1,1,3.1,0.6,3.4-1.4c0,0,1.4,2.9-1.5,6.2c-1.9,2.1-6.2,4-9,2.8"/>
		<path id="Stroke-60_2_" class="st8" d="M369,21.7c3.9,0,10.9-1.1,11.7-8.9c0.8-7.7-3.9-9.5-6.3-10.3c-4-1.4-12.9-1-14.7,0.6
			c0,0-1.9-3.3-4.4-1.4c-2.1,1.6,2.2,5.2,4.6,3.3c0.9-0.7,3.8-1.7,5-1.8c2-0.2,6.9-0.3,7.9,3.2c0,0-1,4.1,0.7,5.7
			c1,1,3.1,0.6,3.4-1.4c0,0,1.4,2.9-1.5,6.2c-1.9,2.1-6.2,4-9,2.8"/>
		<path id="Fill-62_2_" class="st2" d="M468.7,22c0,0-9.4,2.1-11.3,5.4c0,0-3.2-5.4-6.1-5.4c2.9,0,6.1-5.4,6.1-5.4
			C459.3,19.9,468.7,22,468.7,22"/>
		<path id="Stroke-64_2_" class="st5" d="M468.7,22c0,0-9.4,2.1-11.3,5.4c0,0-3.2-5.4-6.1-5.4c2.9,0,6.1-5.4,6.1-5.4
			C459.3,19.9,468.7,22,468.7,22z"/>
	</g>
	<path id="Fill-70" class="st3" d="M331,50.1c6,0,6.2-5.7,6.2-5.7h5.3c6.4,0,7.6-6.5,7.6-6.5c6.8,2.9,15.6-6.2,15.6-6.2
		c1.5,1.3,6.1,1.8,7.3-0.5c1.2-2.1,3.8-3.6,4.2-3.8c-0.3-0.2-3-1.6-4.2-3.8c-1.2-2.3-5.8-1.8-7.3-0.5c0,0-8.8-9.1-15.6-6.2
		c0,0-1.2-6.5-7.6-6.5h-5.3c0,0-0.2-5.8-6.2-5.7c-6,0-79.2,0-79.2,0s-73.1,0-79.2,0c-6,0-6.2,5.7-6.2,5.7h-5.3
		c-6.4,0-7.6,6.5-7.6,6.5c-6.8-2.9-15.6,6.2-15.6,6.2c-1.5-1.3-6.1-1.8-7.3,0.5c-1.2,2.1-3.8,3.6-4.2,3.8c0.3,0.2,3,1.6,4.2,3.8
		c1.2,2.3,5.8,1.8,7.3,0.5c0,0,8.8,9.1,15.6,6.2c0,0,1.2,6.5,7.6,6.5h5.3c0,0,0.2,5.8,6.2,5.7c6,0,79.2,0,79.2,0S325,50,331,50.1"/>
	<path id="Stroke-72" class="st11" d="M331,50.1c6,0,6.2-5.7,6.2-5.7h5.3c6.4,0,7.6-6.5,7.6-6.5c6.8,2.9,15.6-6.2,15.6-6.2
		c1.5,1.3,6.1,1.8,7.3-0.5c1.2-2.1,3.8-3.6,4.2-3.8c-0.3-0.2-3-1.6-4.2-3.8c-1.2-2.3-5.8-1.8-7.3-0.5c0,0-8.8-9.1-15.6-6.2
		c0,0-1.2-6.5-7.6-6.5h-5.3c0,0-0.2-5.8-6.2-5.7c-6,0-79.2,0-79.2,0s-73.1,0-79.2,0c-6,0-6.2,5.7-6.2,5.7h-5.3
		c-6.4,0-7.6,6.5-7.6,6.5c-6.8-2.9-15.6,6.2-15.6,6.2c-1.5-1.3-6.1-1.8-7.3,0.5c-1.2,2.1-3.8,3.6-4.2,3.8c0.3,0.2,3,1.6,4.2,3.8
		c1.2,2.3,5.8,1.8,7.3,0.5c0,0,8.8,9.1,15.6,6.2c0,0,1.2,6.5,7.6,6.5h5.3c0,0,0.2,5.8,6.2,5.7c6,0,79.2,0,79.2,0S325,50,331,50.1z"
		/>
	<path id="Fill-78" class="st12" d="M251.8,47.9c0,0,55.3-0.6,73.1,0c9.6,0.3,10.2-8.2,10.2-8.2s1.4,0.6,6.2,0.5
		c5.5-0.2,6.2-6.2,6.2-6.2s9,1,11.2-2.1c1.8-2.4,5.2-4,6.5-4.6h0.5c0,0-0.1,0-0.3-0.1c0.2-0.1,0.3-0.1,0.3-0.1h-0.5
		c-1.3-0.5-4.7-2.1-6.5-4.6c-2.2-3-11.2-2.1-11.2-2.1s-0.6-6-6.2-6.2c-4.8-0.2-6.2,0.5-6.2,0.5s-0.7-8.5-10.2-8.2
		c-17.7,0.6-73.1,0-73.1,0s-55.3,0.6-73.1,0c-9.6-0.3-10.2,8.2-10.2,8.2s-1.4-0.6-6.2-0.5c-5.5,0.2-6.2,6.2-6.2,6.2s-9-1-11.2,2.1
		c-1.8,2.4-5.2,4-6.5,4.6H138c0,0,0.1,0,0.3,0.1c-0.2,0.1-0.3,0.1-0.3,0.1h0.5c1.3,0.5,4.7,2.1,6.5,4.6c2.2,3,11.2,2.1,11.2,2.1
		s0.6,6,6.2,6.2c4.8,0.2,6.2-0.5,6.2-0.5s0.7,8.5,10.2,8.2C196.5,47.3,251.8,47.9,251.8,47.9"/>
	<path id="Stroke-80" class="st4" d="M251.8,47.9c0,0,55.3-0.6,73.1,0c9.6,0.3,10.2-8.2,10.2-8.2s1.4,0.6,6.2,0.5
		c5.5-0.2,6.2-6.2,6.2-6.2s9,1,11.2-2.1c1.8-2.4,5.2-4,6.5-4.6h0.5c0,0-0.1,0-0.3-0.1c0.2-0.1,0.3-0.1,0.3-0.1h-0.5
		c-1.3-0.5-4.7-2.1-6.5-4.6c-2.2-3-11.2-2.1-11.2-2.1s-0.6-6-6.2-6.2c-4.8-0.2-6.2,0.5-6.2,0.5s-0.7-8.5-10.2-8.2
		c-17.7,0.6-73.1,0-73.1,0s-55.3,0.6-73.1,0c-9.6-0.3-10.2,8.2-10.2,8.2s-1.4-0.6-6.2-0.5c-5.5,0.2-6.2,6.2-6.2,6.2s-9-1-11.2,2.1
		c-1.8,2.4-5.2,4-6.5,4.6H138c0,0,0.1,0,0.3,0.1c-0.2,0.1-0.3,0.1-0.3,0.1h0.5c1.3,0.5,4.7,2.1,6.5,4.6c2.2,3,11.2,2.1,11.2,2.1
		s0.6,6,6.2,6.2c4.8,0.2,6.2-0.5,6.2-0.5s0.7,8.5,10.2,8.2C196.5,47.3,251.8,47.9,251.8,47.9z"/>
</g>
</svg>
